<?xml version="1.0" encoding="utf-8"?>
<!-- Generator: Adobe Illustrator 17.0.0, SVG Export Plug-In . SVG Version: 6.00 Build 0)  -->
<!DOCTYPE svg PUBLIC "-//W3C//DTD SVG 1.1//EN" "http://www.w3.org/Graphics/SVG/1.1/DTD/svg11.dtd">
<svg version="1.1" id="Layer_1" xmlns="http://www.w3.org/2000/svg" xmlns:xlink="http://www.w3.org/1999/xlink" x="0px" y="0px"
	 width="100px" height="100px" viewBox="0 0 100 100" enable-background="new 0 0 100 100" xml:space="preserve">
<path fill="#FFFFFF" d="M-57.655,5.112c4.375,0,15.02,30.368,15.02,30.368s31.76,1.169,33.12,4.608s-23.837,23.963-23.837,23.963
	s8.451,30.408,5.449,32.629s-29.752-14.972-29.752-14.972s-26.379,17.25-29.752,14.972s5.449-32.629,5.449-32.629
	s-25.477-19.651-23.837-23.963c1.64-4.311,33.12-4.608,33.12-4.608S-62.03,5.112-57.655,5.112z"/>
<path fill="#FFFFFF" d="M50.011,5.112c2.989,0,15.02,30.368,15.02,30.368s32.271,2.696,33.12,4.608S74.314,64.051,74.314,64.051
	s7.046,31.226,5.449,32.629S50.011,81.708,50.011,81.708S21.935,97.943,20.259,96.68s5.449-32.629,5.449-32.629
	S0.993,42.509,1.871,40.088s33.12-4.608,33.12-4.608S47.023,5.112,50.011,5.112z"/>
<polygon fill="#FFFFFF" points="178.75,4.216 190.717,39.282 226.89,39.192 198.114,62.046 208.502,95.784 178.75,76.114 
	148.998,95.784 159.386,62.046 130.61,39.192 166.783,39.282 "/>
</svg>
