<?xml version="1.0" encoding="utf-8"?>
<!-- Generator: Adobe Illustrator 17.0.0, SVG Export Plug-In . SVG Version: 6.00 Build 0)  -->
<!DOCTYPE svg PUBLIC "-//W3C//DTD SVG 1.1//EN" "http://www.w3.org/Graphics/SVG/1.1/DTD/svg11.dtd">
<svg version="1.1" id="Layer_1" xmlns="http://www.w3.org/2000/svg" xmlns:xlink="http://www.w3.org/1999/xlink" x="0px" y="0px"
	 width="100px" height="100px" viewBox="0 0 100 100" enable-background="new 0 0 100 100" xml:space="preserve">
<path display="none" fill="#E28769" d="M37.134,63.671c-0.444,0-0.805-0.36-0.805-0.805l7.458-18.274
	c0.125-0.32,0.485-0.68,0.805-0.805l18.274-7.458c0.444,0,0.805,0.36,0.805,0.805l-7.458,18.274c-0.125,0.32-0.485,0.68-0.805,0.805
	L37.134,63.671z"/>
<path display="none" fill="#E28769" d="M36.329,37.134c0-0.444,0.36-0.805,0.805-0.805l18.274,7.458
	c0.32,0.125,0.68,0.485,0.805,0.805l7.458,18.274c0,0.444-0.36,0.805-0.805,0.805l-18.274-7.458c-0.32-0.125-0.68-0.485-0.805-0.805
	L36.329,37.134z"/>
<path display="none" fill="#E28769" d="M50.707,73.319c-0.391,0.391-1.024,0.391-1.414,0l-9.505-22.612
	c-0.171-0.391-0.171-1.024,0-1.414l9.505-22.612c0.391-0.391,1.024-0.391,1.414,0l9.505,22.612c0.171,0.391,0.171,1.024,0,1.414
	L50.707,73.319z"/>
<path display="none" fill="#E28769" d="M26.681,50.707c-0.391-0.391-0.391-1.024,0-1.414l22.612-9.505
	c0.391-0.171,1.024-0.171,1.414,0l22.612,9.505c0.391,0.391,0.391,1.024,0,1.414l-22.612,9.505c-0.391,0.171-1.024,0.171-1.414,0
	L26.681,50.707z"/>
<circle display="none" fill="#F1F2F2" cx="50" cy="50" r="4.218"/>
<image display="none" overflow="visible" width="1080" height="1920" xlink:href="../../../../App Screens/Discovery/discoveryscreen-2.png"  transform="matrix(0.1796 0 0 0.1796 -2.9925 -269.7469)">
</image>
<circle fill="none" stroke="#BFBFBF" stroke-width="3" stroke-miterlimit="10" cx="35.374" cy="35.374" r="27.374"/>
<path fill="none" stroke="#BFBFBF" stroke-width="3" stroke-miterlimit="10" d="M58.998,62.517l-5.596-5.596"/>
<path fill="none" stroke="#BFBFBF" stroke-width="3" stroke-miterlimit="10" d="M56.921,53.402l5.596,5.596"/>
<path fill="none" stroke="#BFBFBF" stroke-width="3" stroke-miterlimit="10" d="M87.536,82.16c1.454,1.454,1.454,3.812,0,5.266
	l-0.11,0.11c-1.454,1.454-3.812,1.454-5.266,0L59.795,65.171c-1.454-1.454-1.454-3.812,0-5.266l0.11-0.11
	c1.454-1.454,3.812-1.454,5.266,0L87.536,82.16z"/>
</svg>
