<?xml version="1.0" encoding="utf-8"?>
<!-- Generator: Adobe Illustrator 16.0.0, SVG Export Plug-In . SVG Version: 6.00 Build 0)  -->
<!DOCTYPE svg PUBLIC "-//W3C//DTD SVG 1.1//EN" "http://www.w3.org/Graphics/SVG/1.1/DTD/svg11.dtd">
<svg version="1.1" id="Layer_1" xmlns="http://www.w3.org/2000/svg" xmlns:xlink="http://www.w3.org/1999/xlink" x="0px" y="0px"
	 width="500px" height="141.333px" viewBox="0 0 500 141.333" enable-background="new 0 0 500 141.333" xml:space="preserve">
<image display="none" overflow="visible" width="1000" height="723" xlink:href="folder-large-1.png"  transform="matrix(0.5 0 0 0.5 0 3.584)">
</image>
<path display="none" fill="#DAD9D9" d="M8,134.156c-4.418,0-8-3.582-8-8V11.583c0-4.418,3.582-8,8-8h228.851
	c2.982,0,7.376,3.754,9,7L261.296,32h223.703c8.284,0,15,6.716,15,15v73.333c0,8.284-6.716,15-15,15L8,134.156z"/>
<path fill="#DAD9D9" d="M485,32H261.297l-15.445-21.417c-1.624-3.246-6.018-7-9-7H8c-4.418,0-8,3.582-8,8v76.739
	c0.005-8.28,6.719-14.99,15-14.99h469.999c8.284,0,15,6.716,15,15v32.021c0-0.007,0.001-0.013,0.001-0.02V47
	C500,38.715,493.283,32,485,32z"/>
</svg>
