<?xml version="1.0" encoding="utf-8"?>
<!-- Generator: Adobe Illustrator 16.0.0, SVG Export Plug-In . SVG Version: 6.00 Build 0)  -->
<!DOCTYPE svg PUBLIC "-//W3C//DTD SVG 1.1//EN" "http://www.w3.org/Graphics/SVG/1.1/DTD/svg11.dtd">
<svg version="1.1" id="Layer_1" xmlns="http://www.w3.org/2000/svg" xmlns:xlink="http://www.w3.org/1999/xlink" x="0px" y="0px"
	 width="100px" height="100px" viewBox="0 0 100 100" enable-background="new 0 0 100 100" xml:space="preserve">
<image display="none" overflow="visible" enable-background="new    " width="123" height="124" xlink:href="footprintbutton-1.png"  transform="matrix(0.8065 0 0 0.8065 0.4023 0)">
</image>
<circle fill="#FFFFFF" cx="50" cy="50.437" r="49.597"/>
<circle fill="#F2F2F2" cx="50" cy="50.438" r="49.597"/>
<path fill="#939598" d="M49.567,79.545c-0.422,0-0.824-0.178-1.108-0.488c-0.814-0.893-19.935-22.002-19.935-35.554
	c0-11.603,9.44-21.043,21.043-21.043c11.604,0,21.042,9.44,21.042,21.043c0,13.552-19.121,34.662-19.935,35.554
	C50.391,79.367,49.989,79.545,49.567,79.545z"/>
<path fill="#C7C8CA" d="M49.567,23.959c10.792,0,19.542,8.75,19.542,19.543c0,13.126-19.542,34.542-19.542,34.542
	S30.024,56.629,30.024,43.502C30.024,32.709,38.774,23.959,49.567,23.959 M49.567,20.959c-12.43,0-22.543,10.113-22.543,22.543
	c0,6.07,3.469,14.115,10.312,23.912c4.941,7.072,9.81,12.429,10.015,12.652c0.568,0.623,1.373,0.979,2.216,0.979
	c0.843,0,1.647-0.354,2.216-0.979c0.205-0.225,5.074-5.58,10.015-12.652c6.843-9.797,10.312-17.841,10.312-23.912
	C72.109,31.072,61.998,20.959,49.567,20.959L49.567,20.959z"/>
<circle fill="none" stroke="#FFFFFF" stroke-width="3" stroke-linejoin="round" stroke-miterlimit="10" cx="49.37" cy="44.798" r="8.138"/>
</svg>
