<?xml version="1.0" encoding="utf-8"?>
<!-- Generator: Adobe Illustrator 16.0.0, SVG Export Plug-In . SVG Version: 6.00 Build 0)  -->
<!DOCTYPE svg PUBLIC "-//W3C//DTD SVG 1.1//EN" "http://www.w3.org/Graphics/SVG/1.1/DTD/svg11.dtd">
<svg version="1.1" id="Layer_1" xmlns="http://www.w3.org/2000/svg" xmlns:xlink="http://www.w3.org/1999/xlink" x="0px" y="0px"
	 width="100px" height="100px" viewBox="0 0 100 100" enable-background="new 0 0 100 100" xml:space="preserve">
<image display="none" overflow="visible" width="123" height="124" xlink:href="../footprintbutton-1/footprintbutton-1.png"  transform="matrix(0.8065 0 0 0.8065 0.4023 4.882812e-04)">
</image>
<circle fill="#FFFFFF" cx="50" cy="50.437" r="49.597"/>
<circle fill="#F2F2F2" cx="50" cy="50.438" r="49.597"/>
<g display="none">
	<path display="inline" fill="#F16364" d="M49.567,79.545c-0.422,0-0.824-0.178-1.108-0.489
		c-0.814-0.892-19.935-22.001-19.935-35.553c0-11.603,9.44-21.043,21.043-21.043c11.604,0,21.043,9.44,21.043,21.043
		c0,13.552-19.121,34.662-19.935,35.553C50.391,79.367,49.989,79.545,49.567,79.545z"/>
	<path display="inline" fill="#F7A7A8" d="M49.567,23.959c10.793,0,19.543,8.75,19.543,19.543c0,13.126-19.543,34.542-19.543,34.542
		S30.024,56.629,30.024,43.502C30.024,32.709,38.774,23.959,49.567,23.959 M49.567,20.959c-12.43,0-22.543,10.113-22.543,22.543
		c0,6.07,3.469,14.115,10.312,23.912c4.941,7.073,9.81,12.429,10.015,12.653c0.568,0.623,1.373,0.978,2.216,0.978
		s1.647-0.354,2.216-0.978c0.205-0.225,5.074-5.58,10.015-12.653c6.843-9.797,10.312-17.841,10.312-23.912
		C72.11,31.072,61.998,20.959,49.567,20.959L49.567,20.959z"/>
</g>
<circle display="none" fill="#F16364" stroke="#FFFFFF" stroke-width="3" stroke-linejoin="round" stroke-miterlimit="10" cx="49.37" cy="44.798" r="8.138"/>
<image display="none" overflow="visible" width="123" height="124" xlink:href="friendsbutton-1.png"  transform="matrix(0.8065 0 0 0.8065 0.4062 4.882812e-04)">
</image>
<path fill="#E38869" d="M49.392,72.685H21V53.195C21,45.355,27.355,39,35.196,39l0,0c7.84,0,14.196,6.355,14.196,14.195V72.685z"/>
<circle fill="#FFFFFF" cx="35.333" cy="35" r="12.333"/>
<circle fill="#E38869" cx="35.333" cy="35" r="9"/>
<path fill="#E38869" d="M79.393,72.685H51V53.195C51,45.355,57.355,39,65.196,39l0,0c7.841,0,14.196,6.355,14.196,14.195V72.685z"/>
<circle fill="#FFFFFF" cx="65.334" cy="35" r="12.334"/>
<circle fill="#E38869" cx="65.334" cy="35" r="9"/>
<path fill="#C0BFBF" d="M49.393,72.685H21V53.195C21,45.355,27.355,39,35.195,39l0,0c7.841,0,14.197,6.355,14.197,14.195V72.685z"/>
<circle fill="#F2F2F2" cx="35.333" cy="35" r="12.333"/>
<circle fill="#C0BFBF" cx="35.334" cy="35" r="9"/>
<path fill="#C0BFBF" d="M79.393,72.685H51V53.195C51,45.355,57.355,39,65.196,39l0,0c7.841,0,14.196,6.355,14.196,14.195V72.685z"/>
<circle fill="#F2F2F2" cx="65.334" cy="35" r="12.334"/>
<circle fill="#C0BFBF" cx="65.334" cy="35" r="9"/>
</svg>
