<?xml version="1.0" encoding="utf-8"?>
<!-- Generator: Adobe Illustrator 16.0.0, SVG Export Plug-In . SVG Version: 6.00 Build 0)  -->
<!DOCTYPE svg PUBLIC "-//W3C//DTD SVG 1.1//EN" "http://www.w3.org/Graphics/SVG/1.1/DTD/svg11.dtd">
<svg version="1.1" id="Layer_1" xmlns="http://www.w3.org/2000/svg" xmlns:xlink="http://www.w3.org/1999/xlink" x="0px" y="0px"
	 width="100px" height="100px" viewBox="0 0 100 100" enable-background="new 0 0 100 100" xml:space="preserve">
<image display="none" overflow="visible" width="42" height="33" xlink:href="savetofolder-1.png"  transform="matrix(2.381 0 0 2.381 4.882812e-04 10.7104)">
</image>
<path fill="#E38869" d="M52.284,47.057c0,5.522-4.477,10-10,10H10c-5.523,0-10-4.478-10-10V20.711c0-5.523,4.477-10,10-10h32.284
	c5.523,0,10,4.477,10,10V47.057z"/>
<path fill="#E38869" d="M0,79.281c0,5.522,4.477,10,10,10h80c5.522,0,10-4.478,10-10V31.394c0-5.523-4.478-10-10-10H10
	c-5.523,0-10,4.477-10,10V79.281z"/>
<text transform="matrix(1 0 0 1 26.3232 84.0039)" fill="#FFFFFF" font-family="'OpenSans-Light'" font-size="85">+</text>
</svg>
