<?xml version="1.0" encoding="utf-8"?>
<!-- Generator: Adobe Illustrator 16.0.0, SVG Export Plug-In . SVG Version: 6.00 Build 0)  -->
<!DOCTYPE svg PUBLIC "-//W3C//DTD SVG 1.1//EN" "http://www.w3.org/Graphics/SVG/1.1/DTD/svg11.dtd">
<svg version="1.1" xmlns="http://www.w3.org/2000/svg" xmlns:xlink="http://www.w3.org/1999/xlink" x="0px" y="0px" width="100px"
	 height="100px" viewBox="0 0 100 100" enable-background="new 0 0 100 100" xml:space="preserve">
<g id="Layer_1" display="none">
	<g id="tabicon-feed-1.psd" display="inline">
		
			<image overflow="visible" width="71" height="65" id="tabicon-feed-1_2_" xlink:href="FC5286CAF5B34371.png"  transform="matrix(1.4084 0 0 1.4084 0.0239 0.02)">
		</image>
	</g>
</g>
<g id="Layer_2">
	<g>
		<path fill="#BFBFBF" d="M93,14.972c1.93,0,3.5,1.57,3.5,3.5v65.583c0,1.93-1.57,3.5-3.5,3.5H7c-1.93,0-3.5-1.57-3.5-3.5V18.472
			c0-1.93,1.57-3.5,3.5-3.5H93 M93,11.472H7c-3.866,0-7,3.134-7,7v65.583c0,3.866,3.134,7,7,7h86c3.866,0,7-3.134,7-7V18.472
			C100,14.606,96.866,11.472,93,11.472L93,11.472z"/>
	</g>
	<g>
		<path fill="#BFBFBF" d="M19.833,37.611c-3.553,0-6.444-2.891-6.444-6.444s2.891-6.444,6.444-6.444s6.444,2.891,6.444,6.444
			S23.387,37.611,19.833,37.611z"/>
		<path fill="#BFBFBF" d="M19.833,26.472c2.588,0,4.694,2.106,4.694,4.694s-2.106,4.694-4.694,4.694s-4.694-2.106-4.694-4.694
			S17.245,26.472,19.833,26.472 M19.833,22.972c-4.525,0-8.194,3.669-8.194,8.194s3.669,8.194,8.194,8.194s8.194-3.669,8.194-8.194
			S24.359,22.972,19.833,22.972L19.833,22.972z"/>
	</g>
	<g>
		<path fill="#BFBFBF" d="M39.417,30.667c-1.639,0-2.972-1.333-2.972-2.972s1.333-2.972,2.972-2.972h40.417
			c1.639,0,2.972,1.333,2.972,2.972s-1.333,2.972-2.972,2.972H39.417z"/>
		<path fill="#BFBFBF" d="M79.834,26.472c0.674,0,1.222,0.548,1.222,1.222s-0.548,1.222-1.222,1.222H39.417
			c-0.674,0-1.222-0.548-1.222-1.222s0.548-1.222,1.222-1.222H79.834 M79.834,22.972H39.417c-2.608,0-4.722,2.114-4.722,4.722
			s2.114,4.722,4.722,4.722h40.417c2.607,0,4.722-2.114,4.722-4.722S82.441,22.972,79.834,22.972L79.834,22.972z"/>
	</g>
	<g>
		<path fill="#BFBFBF" d="M39.486,45.944c-1.677,0-3.042-1.364-3.042-3.042s1.364-3.042,3.042-3.042h19.167
			c1.678,0,3.042,1.364,3.042,3.042s-1.364,3.042-3.042,3.042H39.486z"/>
		<path fill="#BFBFBF" d="M58.652,41.611c0.713,0,1.292,0.58,1.292,1.292s-0.579,1.292-1.292,1.292H39.486
			c-0.712,0-1.292-0.58-1.292-1.292s0.58-1.292,1.292-1.292H58.652 M58.652,38.111H39.486c-2.646,0-4.792,2.145-4.792,4.792
			s2.145,4.792,4.792,4.792h19.167c2.646,0,4.792-2.145,4.792-4.792S61.299,38.111,58.652,38.111L58.652,38.111z"/>
	</g>
	<g>
		<path fill="#BFBFBF" d="M9.056,88.723c-2.895,0-5.25-2.355-5.25-5.25V60.556h92.889v22.917c0,2.895-2.355,5.25-5.25,5.25H9.056z"
			/>
		<path fill="#BFBFBF" d="M94.944,62.306v21.167c0,1.93-1.57,3.5-3.5,3.5H9.056c-1.93,0-3.5-1.57-3.5-3.5V62.306H94.944
			 M98.444,58.806H2.056v24.667c0,3.866,3.134,7,7,7h82.389c3.866,0,7-3.134,7-7V58.806L98.444,58.806z"/>
	</g>
	<g>
		<path fill="#E18769" d="M93,14.972c1.93,0,3.5,1.57,3.5,3.5v65.583c0,1.93-1.57,3.5-3.5,3.5H7c-1.93,0-3.5-1.57-3.5-3.5V18.472
			c0-1.93,1.57-3.5,3.5-3.5H93 M93,11.472H7c-3.866,0-7,3.134-7,7v65.583c0,3.866,3.134,7,7,7h86c3.866,0,7-3.134,7-7V18.472
			C100,14.606,96.866,11.472,93,11.472L93,11.472z"/>
	</g>
	<g>
		<path fill="#E18769" d="M19.833,37.611c-3.553,0-6.444-2.891-6.444-6.444s2.891-6.444,6.444-6.444s6.444,2.891,6.444,6.444
			S23.387,37.611,19.833,37.611z"/>
		<path fill="#E18769" d="M19.833,26.472c2.588,0,4.694,2.106,4.694,4.694s-2.106,4.694-4.694,4.694s-4.694-2.106-4.694-4.694
			S17.245,26.472,19.833,26.472 M19.833,22.972c-4.525,0-8.194,3.669-8.194,8.194s3.669,8.194,8.194,8.194s8.194-3.669,8.194-8.194
			S24.359,22.972,19.833,22.972L19.833,22.972z"/>
	</g>
	<g>
		<path fill="#E18769" d="M39.417,30.667c-1.639,0-2.972-1.333-2.972-2.972s1.333-2.972,2.972-2.972h40.417
			c1.639,0,2.972,1.333,2.972,2.972s-1.333,2.972-2.972,2.972H39.417z"/>
		<path fill="#E18769" d="M79.834,26.472c0.674,0,1.222,0.548,1.222,1.222s-0.548,1.222-1.222,1.222H39.417
			c-0.674,0-1.222-0.548-1.222-1.222s0.548-1.222,1.222-1.222H79.834 M79.834,22.972H39.417c-2.608,0-4.722,2.114-4.722,4.722
			s2.114,4.722,4.722,4.722h40.417c2.607,0,4.722-2.114,4.722-4.722S82.441,22.972,79.834,22.972L79.834,22.972z"/>
	</g>
	<g>
		<path fill="#E18769" d="M39.486,45.944c-1.677,0-3.042-1.364-3.042-3.042s1.364-3.042,3.042-3.042h19.167
			c1.678,0,3.042,1.364,3.042,3.042s-1.364,3.042-3.042,3.042H39.486z"/>
		<path fill="#E18769" d="M58.652,41.611c0.713,0,1.292,0.58,1.292,1.292s-0.579,1.292-1.292,1.292H39.486
			c-0.712,0-1.292-0.58-1.292-1.292s0.58-1.292,1.292-1.292H58.652 M58.652,38.111H39.486c-2.646,0-4.792,2.145-4.792,4.792
			s2.145,4.792,4.792,4.792h19.167c2.646,0,4.792-2.145,4.792-4.792S61.299,38.111,58.652,38.111L58.652,38.111z"/>
	</g>
	<g>
		<path fill="#E18769" d="M9.056,88.723c-2.895,0-5.25-2.355-5.25-5.25V60.556h92.889v22.917c0,2.895-2.355,5.25-5.25,5.25H9.056z"
			/>
		<path fill="#E18769" d="M94.944,62.306v21.167c0,1.93-1.57,3.5-3.5,3.5H9.056c-1.93,0-3.5-1.57-3.5-3.5V62.306H94.944
			 M98.444,58.806H2.056v24.667c0,3.866,3.134,7,7,7h82.389c3.866,0,7-3.134,7-7V58.806L98.444,58.806z"/>
	</g>
</g>
</svg>
