<?xml version="1.0" encoding="utf-8"?>
<!-- Generator: Adobe Illustrator 16.0.0, SVG Export Plug-In . SVG Version: 6.00 Build 0)  -->
<!DOCTYPE svg PUBLIC "-//W3C//DTD SVG 1.1//EN" "http://www.w3.org/Graphics/SVG/1.1/DTD/svg11.dtd">
<svg version="1.1" xmlns="http://www.w3.org/2000/svg" xmlns:xlink="http://www.w3.org/1999/xlink" x="0px" y="0px" width="100px"
	 height="100px" viewBox="0 0 100 100" enable-background="new 0 0 100 100" xml:space="preserve">
<g id="Layer_1" display="none">
	<g id="tabicon-me-1.psd" display="inline">
		
			<image overflow="visible" width="36" height="62" id="tabicon-me-1_2_" xlink:href="3D9B28E96CCADE36.png"  transform="matrix(1.613 0 0 1.613 20.9292 -0.0361)">
		</image>
	</g>
</g>
<g id="Layer_2">
	<g display="none">
		<path display="inline" fill="#E18769" d="M50,39.103c-9.497,0-17.223-7.726-17.223-17.223S40.503,4.658,50,4.658
			c9.497,0,17.223,7.726,17.223,17.223S59.497,39.103,50,39.103z"/>
		<path display="inline" fill="#E18769" d="M50,6.408c8.531,0,15.473,6.941,15.473,15.473S58.531,37.353,50,37.353
			c-8.532,0-15.473-6.941-15.473-15.473S41.468,6.408,50,6.408 M50,2.908c-10.479,0-18.973,8.494-18.973,18.973
			S39.521,40.853,50,40.853s18.973-8.494,18.973-18.973S60.479,2.908,50,2.908L50,2.908z"/>
	</g>
	<g display="none">
		<path display="inline" fill="#BFBFBF" d="M54.029,39.444c11.855,0,21.5,9.645,21.5,21.5V96.5H24.469V60.944
			c0-11.855,9.645-21.5,21.5-21.5H54.029 M54.029,35.944h-8.061c-13.807,0-25,11.193-25,25V100h58.061V60.944
			C79.029,47.137,67.836,35.944,54.029,35.944L54.029,35.944z"/>
	</g>
	<path display="none" fill="none" stroke="#E18769" stroke-width="3.5" stroke-miterlimit="10" d="M33.058,40.98
		c-6.225,4.221-10.316,11.353-10.316,19.442v36.67h54.516v-36.67c0-7.806-3.812-14.717-9.674-18.985"/>
	<g display="none">
		<path display="inline" fill="#E18769" d="M50,39.231c-9.473,0-17.18-7.707-17.18-17.18S40.527,4.871,50,4.871
			c9.473,0,17.18,7.707,17.18,17.18S59.473,39.231,50,39.231z"/>
		<path display="inline" fill="#E18769" d="M50,6.621c8.508,0,15.43,6.922,15.43,15.43S58.508,37.481,50,37.481
			s-15.43-6.922-15.43-15.43S41.492,6.621,50,6.621 M50,3.121c-10.455,0-18.93,8.475-18.93,18.93c0,10.455,8.475,18.93,18.93,18.93
			c10.455,0,18.93-8.476,18.93-18.93C68.93,11.595,60.455,3.121,50,3.121L50,3.121z"/>
	</g>
	<path display="none" fill="#E18769" stroke="#E18769" stroke-width="3.5" stroke-miterlimit="10" d="M68.432,42.25
		C63.58,46.723,57.119,49.477,50,49.477c-7.12,0-13.581-2.754-18.433-7.228c-5.339,4.291-8.763,10.872-8.763,18.255v36.587h54.393
		V60.505C77.196,53.12,73.771,46.542,68.432,42.25z"/>
	<g>
		<path fill="#BFBFBF" d="M50,6.621c8.508,0,15.43,6.922,15.43,15.43S58.508,37.48,50,37.48s-15.43-6.922-15.43-15.43
			S41.492,6.621,50,6.621 M50,3.121c-10.455,0-18.93,8.475-18.93,18.93S39.545,40.98,50,40.98c10.455,0,18.93-8.475,18.93-18.93
			S60.455,3.121,50,3.121L50,3.121z"/>
	</g>
	<path fill="none" stroke="#BFBFBF" stroke-width="3.5" stroke-miterlimit="10" d="M33.058,40.98
		c-6.225,4.221-10.316,11.353-10.316,19.441v36.67h54.516v-36.67c0-7.806-3.812-14.717-9.674-18.984"/>
</g>
</svg>
