<?xml version="1.0" encoding="utf-8"?>
<!-- Generator: Adobe Illustrator 16.0.0, SVG Export Plug-In . SVG Version: 6.00 Build 0)  -->
<!DOCTYPE svg PUBLIC "-//W3C//DTD SVG 1.1//EN" "http://www.w3.org/Graphics/SVG/1.1/DTD/svg11.dtd">
<svg version="1.1" xmlns="http://www.w3.org/2000/svg" xmlns:xlink="http://www.w3.org/1999/xlink" x="0px" y="0px" width="100px"
	 height="100px" viewBox="0 0 100 100" enable-background="new 0 0 100 100" xml:space="preserve">
<g id="Layer_1" display="none">
	<g id="tabicon-folder-1.psd" display="inline">
		
			<image overflow="visible" width="72" height="57" id="tabicon-folder-1_2_" xlink:href="7A0B63E2A7EE5267.png"  transform="matrix(1.3889 0 0 1.3889 0.0186 10.4355)">
		</image>
	</g>
</g>
<g id="Layer_2">
	<path fill="none" stroke="#BFBFBF" stroke-width="3.5" stroke-miterlimit="10" d="M1.813,24.85v-7.398
		c0-3.599,2.917-6.515,6.515-6.515h35.63c3.598,0,6.513,2.917,6.513,6.515v7.398"/>
	<path fill="none" stroke="#BFBFBF" stroke-width="3.5" stroke-miterlimit="10" d="M50.477,23.154h40.922
		c3.722,0,6.738,3.017,6.738,6.739v51.688c0,3.723-3.017,6.739-6.738,6.739H8.603c-3.722,0-6.739-3.017-6.739-6.739V29.894
		c0-3.723,0-6.739,0-6.739"/>
	<path fill="#E18769" stroke="#E18769" stroke-width="3.5" stroke-miterlimit="10" d="M1.838,24.85v-7.398
		c0-3.599,2.917-6.515,6.515-6.515h35.629c3.598,0,6.514,2.917,6.514,6.515v7.398"/>
	<path fill="#E18769" stroke="#E18769" stroke-width="3.5" stroke-miterlimit="10" d="M50.502,23.154h40.922
		c3.722,0,6.738,3.017,6.738,6.739v51.688c0,3.723-3.017,6.739-6.738,6.739H8.628c-3.722,0-6.739-3.017-6.739-6.739V29.894
		c0-3.723,0-6.739,0-6.739"/>
</g>
</svg>
