<?xml version="1.0" encoding="utf-8"?>
<!-- Generator: Adobe Illustrator 16.0.0, SVG Export Plug-In . SVG Version: 6.00 Build 0)  -->
<!DOCTYPE svg PUBLIC "-//W3C//DTD SVG 1.1//EN" "http://www.w3.org/Graphics/SVG/1.1/DTD/svg11.dtd">
<svg version="1.1" xmlns="http://www.w3.org/2000/svg" xmlns:xlink="http://www.w3.org/1999/xlink" x="0px" y="0px" width="100px"
	 height="100px" viewBox="0 0 100 100" enable-background="new 0 0 100 100" xml:space="preserve">
<g id="Layer_1" display="none">
	<g id="tabicon-notifications-1.psd" display="inline">
		
			<image overflow="visible" width="56" height="60" id="tabicon-notifications-1_2_" xlink:href="CF4AE60654A8C156.png"  transform="matrix(1.6667 0 0 1.6667 3.3364 4.882812e-04)">
		</image>
	</g>
</g>
<g id="Layer_2">
	<path fill="none" stroke="#BFBFBF" stroke-width="3.5" stroke-miterlimit="10" d="M48.857,2.713
		c-16.939,0-28.67,13.174-28.67,29.426v31.347c0,8.125-7.232,11.269-11.346,14.3s-6.11,6.948,2.359,6.948H50"/>
	<path fill="none" stroke="#BFBFBF" stroke-width="3.5" stroke-miterlimit="10" d="M48.858,2.713
		c16.939,0,28.67,13.174,28.67,29.426v31.347c0,8.125,7.231,11.268,11.347,14.299c4.113,3.031,6.109,6.949-2.359,6.949H47.715"/>
	<path fill="none" stroke="#BFBFBF" stroke-width="3.5" stroke-miterlimit="10" d="M46.603,84.734
		c-2.226,1.208-3.737,3.564-3.737,6.274c0,3.939,3.194,7.134,7.134,7.134c3.939,0,7.134-3.194,7.134-7.134
		c0-2.71-1.512-5.066-3.737-6.274"/>
</g>
</svg>
