<?xml version="1.0" encoding="utf-8"?>
<!-- Generator: Adobe Illustrator 16.0.0, SVG Export Plug-In . SVG Version: 6.00 Build 0)  -->
<!DOCTYPE svg PUBLIC "-//W3C//DTD SVG 1.1//EN" "http://www.w3.org/Graphics/SVG/1.1/DTD/svg11.dtd">
<svg version="1.1" xmlns="http://www.w3.org/2000/svg" xmlns:xlink="http://www.w3.org/1999/xlink" x="0px" y="0px" width="100px"
	 height="100px" viewBox="0 0 100 100" enable-background="new 0 0 100 100" xml:space="preserve">
<g id="Layer_1" display="none">
	<g id="tabicon-checkin-1.psd" display="inline">
		
			<image overflow="visible" width="45" height="65" id="tabicon-checkin-1_2_" xlink:href="5B87722D0A2C0E6E.png"  transform="matrix(1.5385 0 0 1.5385 15.3828 -0.0029)">
		</image>
	</g>
</g>
<g id="Layer_2">
	<path display="none" fill="#FFFFFF" d="M49.855,0.422c-18.752,0-33.953,15.201-33.953,33.953c0,6.48,2.103,14.372,4.965,19.688
		C32.311,75.316,49.855,100,49.855,100s17.832-24.256,28.979-45.924c2.766-5.373,4.975-13.215,4.975-19.701
		C83.809,15.623,68.607,0.422,49.855,0.422z M49,46.646c-6.146,0-11.128-4.982-11.128-11.128S42.854,24.39,49,24.39
		c6.146,0,11.128,4.982,11.128,11.128S55.146,46.646,49,46.646z"/>
	<path display="none" fill="#FFFFFF" d="M49.855,0.211c-18.752,0-33.953,15.201-33.953,33.953c0,6.486,2.209,14.328,4.975,19.701
		c11.146,21.668,28.979,45.924,28.979,45.924S67.4,75.105,78.844,53.853c2.862-5.316,4.965-13.208,4.965-19.688
		C83.809,15.412,68.607,0.211,49.855,0.211z M49,46.646c-6.146,0-11.128-4.981-11.128-11.128c0-6.146,4.982-11.128,11.128-11.128
		c6.146,0,11.128,4.982,11.128,11.128C60.128,41.664,55.146,46.646,49,46.646z"/>
	<path display="none" fill="#FFFFFF" d="M15.902,33.953c0,6.486,2.209,14.328,4.975,19.701
		c11.146,21.668,28.979,45.924,28.979,45.924S67.4,74.895,78.844,53.642c2.862-5.316,4.965-13.208,4.965-19.688
		C83.809,15.201,68.607,0,49.855,0S15.902,15.201,15.902,33.953z"/>
	<circle display="none" fill="#FFFFFF" cx="49" cy="35.518" r="11.128"/>
	<g id="me-footprints-1.psd" display="none">
		
			<image display="inline" overflow="visible" width="57" height="76" id="me-footprints-1_2_" xlink:href="5B87722D0A2C0E72.png"  transform="matrix(1.3158 0 0 1.3158 12.355 -9.765625e-04)">
		</image>
	</g>
	<g>
		<path fill="#F16465" d="M49.98,97.057c-0.802-0.007-1.553-0.397-2.018-1.052c-0.158-0.222-15.909-22.436-26.105-41.372
			c-2.836-5.268-4.742-12.825-4.742-18.804C17.115,17.696,31.867,2.943,50,2.943s32.885,14.752,32.885,32.885
			c0,5.824-1.855,13.193-4.729,18.775c-9.951,19.343-25.981,41.215-26.142,41.434c-0.472,0.642-1.22,1.02-2.015,1.02
			C49.993,97.057,49.987,97.057,49.98,97.057z"/>
		<path fill="#F7A7A8" d="M50,5.443c16.781,0,30.385,13.604,30.385,30.385c0,5.804-1.977,12.822-4.451,17.631
			C65.958,72.85,50,94.557,50,94.557s-15.701-22.09-25.942-41.109c-2.562-4.757-4.443-11.82-4.443-17.619
			C19.615,19.047,33.219,5.443,50,5.443 M50,0.443c-19.512,0-35.385,15.874-35.385,35.385c0,6.456,1.979,14.302,5.041,19.989
			c10.27,19.074,25.621,40.724,26.269,41.636c0.93,1.309,2.431,2.091,4.035,2.104c0.013,0,0.027,0,0.04,0
			c1.59,0,3.086-0.756,4.028-2.038c0.661-0.899,16.31-22.252,26.352-41.771c3.04-5.908,5.005-13.727,5.005-19.918
			C85.385,16.317,69.511,0.443,50,0.443L50,0.443z"/>
	</g>
	
		<circle fill="none" stroke="#FFFFFF" stroke-width="5" stroke-linecap="round" stroke-linejoin="round" stroke-miterlimit="10" cx="50" cy="38.5" r="14"/>
</g>
</svg>
